# xmcd
#
# Track frame offsets: 
#        150
#        17852
#        33680
#        53583
#        75089
#        97551
#        116007
#        137235
#        153215
#        170258
#        193337
#
# Disc length: 2955 seconds
#
# Revision: 0
# Processed by: cddbd v1.5.2PL0 Copyright (c) Steve Scherf et al.
# Submitted via: ExactAudioCopyFreeDBPlugin 1.0
#
DISCID=7e0b890b
DTITLE=Kathleen Edwards - Back to Me
DYEAR=2005
DGENRE=Folk/Rock
TTITLE0=In State
TTITLE1=Back to Me
TTITLE2=Pink Emerson Radio
TTITLE3=Independent Thief
TTITLE4=Old Time Sake
TTITLE5=Summerlong
TTITLE6=What Are You Waiting For?
TTITLE7=Away
TTITLE8=Somewhere Else
TTITLE9=Copied Keys
TTITLE10=Good Things
EXTD=
EXTT0=
EXTT1=
EXTT2=
EXTT3=
EXTT4=
EXTT5=
EXTT6=
EXTT7=
EXTT8=
EXTT9=
EXTT10=
PLAYORDER=
